<svg width="32" height="30" viewBox="0 0 32 30"  xmlns="http://www.w3.org/2000/svg">
<path fill-rule="evenodd" clip-rule="evenodd" d="M4.26699 12.6934C4.61035 12.9658 4.66843 13.4658 4.39671 13.8101C3.05859 15.5057 2.40162 18.9768 3.61563 22.0301C4.21195 23.5298 5.25613 24.9155 6.88803 25.9324C8.52359 26.9517 10.7935 27.6273 13.8771 27.6273C20.0878 27.6273 22.7501 25.5595 23.913 23.3432C24.0522 23.0779 24.172 22.807 24.2747 22.5329C24.2791 22.52 24.2838 22.5073 24.2889 22.4946C25.0656 20.386 24.8384 18.0898 24.6518 16.6338L24.6202 16.3875L24.7342 16.1669C25.3992 14.8792 26.6522 14.1538 28.0302 14.2862C29.3921 14.4171 30.6972 15.3626 31.6091 17.0256C32.1659 18.041 32.078 19.0878 31.6567 19.9936C31.2472 20.874 30.5201 21.6415 29.7273 22.2375C28.9294 22.8373 28.0092 23.3056 27.1458 23.5576C26.6197 23.7111 26.0319 23.808 25.484 23.7457C25.4309 23.8589 25.3751 23.9715 25.3163 24.0835C23.7922 26.9882 20.4627 29.2174 13.8771 29.2174C10.5624 29.2174 7.98773 28.4898 6.05108 27.283C4.11076 26.0738 2.85511 24.4106 2.14273 22.619C0.739345 19.0894 1.42955 15.0077 3.15328 12.8234C3.425 12.4791 3.92363 12.4209 4.26699 12.6934ZM26.0519 22.1634C26.2328 22.1455 26.4494 22.1048 26.7027 22.0309C27.367 21.837 28.1172 21.4606 28.7761 20.9652C29.4401 20.4661 29.9561 19.8882 30.2196 19.3215C30.4713 18.7802 30.4864 18.2782 30.2196 17.7917C29.4844 16.4509 28.5793 15.9363 27.8789 15.869C27.2582 15.8093 26.6562 16.0821 26.258 16.6979C26.4174 18.0009 26.5983 20.072 26.0519 22.1634Z" fill="#FDD5B5"/>
<path fill-rule="evenodd" clip-rule="evenodd" d="M27.1671 7.44135C28.2406 8.57509 28.7567 10.0607 28.4192 11.8846C27.609 16.263 23.8381 18.5572 19.7285 19.5407C15.5967 20.5295 10.845 20.2789 7.51279 19.3504C4.24915 18.441 2.74441 17.2469 2.25946 15.9462C2.01484 15.2901 2.0674 14.6954 2.18974 14.2526C2.25024 14.0337 2.32773 13.8511 2.3938 13.7144C2.42687 13.6459 2.45735 13.5884 2.48041 13.5457L2.5077 13.4954C2.51201 13.4875 2.51394 13.4838 2.51437 13.483C2.68395 13.1416 3.2598 12.4326 4.26528 12.1847C5.332 11.9218 6.66968 12.2243 8.23943 13.5498C8.65948 13.9045 9.3682 14.1867 10.3478 14.3653C11.3096 14.5407 12.4451 14.6011 13.6357 14.5813C16.0161 14.5416 18.519 14.1832 20.0889 13.865C20.5236 13.7769 20.9464 14.0626 21.0333 14.503C21.1203 14.9434 20.8384 15.3719 20.4037 15.46C18.7632 15.7924 16.1615 16.1659 13.6621 16.2076C12.4127 16.2284 11.1644 16.1669 10.0635 15.9661C8.98044 15.7686 7.9475 15.4205 7.21179 14.7993C5.89215 13.685 5.06278 13.6621 4.64467 13.7652C4.21297 13.8716 3.98653 14.1647 3.95306 14.208C3.94956 14.2126 3.94817 14.2144 3.94887 14.2129C3.93533 14.2404 3.9202 14.2694 3.90425 14.3C3.77377 14.5504 3.58797 14.907 3.7611 15.3714C3.95837 15.9005 4.78119 16.9023 7.93843 17.7821C11.0271 18.6428 15.5054 18.8801 19.3596 17.9577C23.2359 17.03 26.207 15.0139 26.8415 11.5849C27.0818 10.2859 26.7298 9.32894 26.0088 8.56742C25.2503 7.76632 24.0428 7.14477 22.5396 6.69591C19.5406 5.80035 15.7064 5.69085 13.0789 5.87723C12.6367 5.90859 12.2531 5.57079 12.2222 5.12273C12.1912 4.67467 12.5246 4.28602 12.9668 4.25465C15.69 4.0615 19.7375 4.16345 22.9934 5.13571C24.6177 5.62075 26.1311 6.3472 27.1671 7.44135Z" fill="#FDD5B5"/>
<path fill-rule="evenodd" clip-rule="evenodd" d="M10.1229 2.4078C9.66599 2.92991 9.20665 3.5676 8.92597 3.99328L8.6258 4.4485L8.10654 4.34022C8.10724 4.34037 8.1076 4.34044 8.10759 4.34047C8.10757 4.34067 8.07564 4.33602 7.99902 4.33943C7.91922 4.34299 7.81585 4.35403 7.68916 4.37412C7.43539 4.41438 7.12738 4.4846 6.79603 4.57315C6.13471 4.74988 5.43477 4.9849 4.99578 5.14644L4.43087 5.35432L4.07852 4.84918C3.53103 4.0643 3.04719 3.74104 2.74776 3.60699C1.53804 6.02441 1.44885 7.87028 1.75981 9.17712C2.08502 10.5438 2.86777 11.4123 3.46153 11.8019C4.23696 12.0661 5.54137 12.3189 6.95252 12.2127C8.40707 12.1033 9.90903 11.6191 11.0845 10.4519C12.4478 9.09816 12.5253 6.94458 12.0251 4.89845C11.7815 3.90203 11.4163 3.00735 11.0743 2.37504C10.9435 2.13313 10.8231 1.94275 10.7225 1.80512C10.5523 1.94457 10.3468 2.15202 10.1229 2.4078ZM10.9344 1.66108C10.9344 1.66115 10.933 1.66175 10.9303 1.66265C10.9331 1.66147 10.9344 1.66102 10.9344 1.66108ZM10.2113 0.163687C10.3688 0.0834056 10.5856 0 10.8351 0C11.1379 0 11.3677 0.149118 11.4835 0.236142C11.6191 0.338078 11.7402 0.464381 11.8443 0.588878C12.0549 0.840587 12.2698 1.17425 12.4741 1.55202C12.8854 2.31249 13.3037 3.3447 13.5823 4.48459C14.1267 6.71109 14.2042 9.66793 12.1928 11.6652C10.6684 13.1789 8.76877 13.756 7.06817 13.8839C5.37327 14.0114 3.81048 13.6995 2.86011 13.3588L2.7842 13.3316L2.71496 13.2893C1.76188 12.7068 0.647396 11.4605 0.200062 9.58058C-0.252208 7.6799 -0.002229 5.2254 1.62015 2.26522L1.81513 1.90945L2.20419 1.85151C2.89897 1.74805 3.98117 2.14416 5.00585 3.37453C5.42142 3.23391 5.9156 3.07873 6.39703 2.95007C6.75538 2.85431 7.12031 2.76954 7.44741 2.71765C7.57482 2.69744 7.71436 2.679 7.85653 2.6695C8.15459 2.24355 8.54066 1.72993 8.93583 1.27841C9.19461 0.982713 9.47614 0.691851 9.7535 0.468242C9.89237 0.35628 10.047 0.247439 10.2113 0.163687ZM2.7999 8.37772C2.7999 7.91503 3.15965 7.53994 3.60342 7.53994H5.53186C5.97563 7.53994 6.33538 7.91503 6.33538 8.37772C6.33538 8.8404 5.97563 9.21549 5.53186 9.21549H3.60342C3.15965 9.21549 2.7999 8.8404 2.7999 8.37772Z" fill="#FDD5B5"/>
<path fill-rule="evenodd" clip-rule="evenodd" d="M10.3338 6.71427C10.5528 7.13583 10.4048 7.66397 10.0033 7.89391L8.18156 8.93727C7.78006 9.16721 7.27705 9.01187 7.05806 8.59031C6.83906 8.16875 6.987 7.64061 7.3885 7.41067L9.21028 6.36732C9.61177 6.13738 10.1148 6.29271 10.3338 6.71427Z" fill="#FDD5B5"/>
</svg>
