<svg width="33" height="30" viewBox="0 0 33 30" fill="none" xmlns="http://www.w3.org/2000/svg">
<path fill-rule="evenodd" clip-rule="evenodd" d="M4.50821 12.6935C4.85157 12.966 4.90965 13.466 4.63793 13.8103C3.29981 15.5059 2.64284 18.9769 3.85685 22.0302C4.45317 23.53 5.49735 24.9157 7.12926 25.9326C8.76482 26.9518 11.0347 27.6275 14.1183 27.6275C20.3291 27.6275 22.9914 25.5596 24.1543 23.3433C24.2935 23.078 24.4133 22.8072 24.516 22.533C24.5204 22.5202 24.5251 22.5074 24.5302 22.4947C25.3069 20.3862 25.0797 18.0899 24.8931 16.634L24.8615 16.3876L24.9754 16.167C25.6405 14.8794 26.8935 14.1539 28.2715 14.2863C29.6334 14.4172 30.9385 15.3628 31.8504 17.0257C32.4072 18.0411 32.3193 19.0879 31.898 19.9937C31.4885 20.8741 30.7614 21.6416 29.9686 22.2376C29.1707 22.8374 28.2505 23.3058 27.3871 23.5577C26.861 23.7113 26.2732 23.8081 25.7253 23.7459C25.6722 23.859 25.6163 23.9717 25.5576 24.0837C24.0335 26.9884 20.704 29.2176 14.1183 29.2176C10.8037 29.2176 8.22896 28.49 6.2923 27.2831C4.35198 26.074 3.09632 24.4108 2.38394 22.6191C0.980554 19.0896 1.67076 15.0078 3.3945 12.8236C3.66622 12.4792 4.16485 12.421 4.50821 12.6935ZM26.2932 22.1636C26.4741 22.1457 26.6907 22.1049 26.944 22.031C27.6083 21.8371 28.3585 21.4607 29.0174 20.9654C29.6814 20.4663 30.1974 19.8884 30.4609 19.3217C30.7127 18.7804 30.7277 18.2783 30.4609 17.7919C29.7257 16.4511 28.8206 15.9364 28.1202 15.8691C27.4995 15.8095 26.8975 16.0823 26.4993 16.6981C26.6586 18.001 26.8396 20.0722 26.2932 22.1636Z" fill="#41200D"/>
<path fill-rule="evenodd" clip-rule="evenodd" d="M27.4082 7.44124C28.4816 8.57498 28.9978 10.0606 28.6603 11.8845C27.8501 16.2629 24.0792 18.5571 19.9695 19.5406C15.8377 20.5295 11.0859 20.2788 7.75378 19.3503C4.49013 18.4409 2.98538 17.2468 2.50043 15.9461C2.25581 15.29 2.30836 14.6953 2.43071 14.2525C2.4912 14.0336 2.5687 13.8511 2.63477 13.7143C2.66784 13.6458 2.69832 13.5883 2.72138 13.5456L2.74867 13.4954C2.75298 13.4874 2.7549 13.4837 2.75534 13.4829C2.92492 13.1415 3.50077 12.4325 4.50625 12.1846C5.57298 11.9217 6.91066 12.2242 8.48042 13.5497C8.90046 13.9044 9.60919 14.1866 10.5888 14.3652C11.5506 14.5406 12.6861 14.601 13.8767 14.5812C16.2571 14.5415 18.76 14.1831 20.3299 13.8649C20.7646 13.7768 21.1874 14.0625 21.2744 14.5029C21.3613 14.9433 21.0794 15.3718 20.6448 15.4599C19.0043 15.7923 16.4025 16.1659 13.9031 16.2075C12.6537 16.2283 11.4054 16.1668 10.3045 15.966C9.22143 15.7685 8.18849 15.4205 7.45278 14.7992C6.13313 13.6849 5.30375 13.662 4.88565 13.7651C4.45394 13.8715 4.2275 14.1646 4.19403 14.2079C4.19053 14.2125 4.18914 14.2143 4.18985 14.2128C4.1763 14.2403 4.16117 14.2693 4.14522 14.2999C4.01474 14.5503 3.82894 14.9069 4.00207 15.3713C4.19934 15.9004 5.02217 16.9022 8.17941 17.782C11.2681 18.6427 15.7464 18.88 19.6006 17.9576C23.4769 17.03 26.448 15.0139 27.0825 11.5848C27.3229 10.2858 26.9709 9.32884 26.2498 8.56732C25.4913 7.76621 24.2839 7.14466 22.7807 6.6958C19.7816 5.80024 15.9475 5.69074 13.3199 5.87711C12.8777 5.90847 12.4941 5.57067 12.4632 5.12261C12.4322 4.67455 12.7656 4.2859 13.2078 4.25453C15.931 4.06138 19.9785 4.16333 23.2344 5.13559C24.8588 5.62063 26.3722 6.34709 27.4082 7.44124Z" fill="#41200D"/>
<path fill-rule="evenodd" clip-rule="evenodd" d="M10.3644 2.40781C9.90747 2.92992 9.44814 3.56762 9.16745 3.99329L8.86728 4.44852L8.34802 4.34024C8.34872 4.34038 8.34908 4.34046 8.34908 4.34048C8.34905 4.34068 8.31712 4.33603 8.24051 4.33945C8.1607 4.343 8.05733 4.35404 7.93064 4.37414C7.67687 4.4144 7.36885 4.48462 7.03751 4.57317C6.37618 4.7499 5.67625 4.98491 5.23725 5.14646L4.67234 5.35434L4.31999 4.8492C3.7725 4.06432 3.28866 3.74105 2.98922 3.607C1.7795 6.02443 1.69031 7.8703 2.00127 9.17715C2.32648 10.5439 3.10923 11.4123 3.70299 11.8019C4.47843 12.0661 5.78284 12.3189 7.19399 12.2127C8.64856 12.1033 10.1505 11.6191 11.326 10.452C12.6893 9.09818 12.7668 6.9446 12.2666 4.89847C12.023 3.90204 11.6578 3.00736 11.3158 2.37504C11.185 2.13313 11.0646 1.94276 10.964 1.80512C10.7938 1.94458 10.5883 2.15203 10.3644 2.40781ZM11.1759 1.66109C11.1759 1.66116 11.1745 1.66175 11.1718 1.66266C11.1746 1.66148 11.1759 1.66102 11.1759 1.66109ZM10.4528 0.163688C10.6102 0.0834058 10.8271 0 11.0766 0C11.3794 0 11.6092 0.149118 11.725 0.236143C11.8606 0.338079 11.9817 0.464383 12.0858 0.58888C12.2964 0.84059 12.5113 1.17425 12.7156 1.55202C13.1269 2.3125 13.5452 3.34471 13.8238 4.4846C14.3682 6.71112 14.4457 9.66796 12.4343 11.6653C10.9099 13.179 9.01025 13.756 7.30965 13.8839C5.61475 14.0114 4.05195 13.6995 3.10157 13.3589L3.02567 13.3317L2.95642 13.2894C2.00334 12.7068 0.888853 11.4606 0.441517 9.58062C-0.0107535 7.67993 0.239226 5.22542 1.86161 2.26523L2.05659 1.90946L2.44565 1.85152C3.14043 1.74806 4.22264 2.14417 5.24732 3.37454C5.66289 3.23392 6.15707 3.07874 6.63851 2.95008C6.99685 2.85432 7.36179 2.76955 7.68889 2.71766C7.8163 2.69744 7.95585 2.67901 8.09801 2.66951C8.39607 2.24356 8.78214 1.72993 9.17731 1.27841C9.4361 0.982717 9.71762 0.691853 9.99498 0.468243C10.1339 0.356281 10.2885 0.24744 10.4528 0.163688ZM3.04136 8.37774C3.04136 7.91505 3.40111 7.53997 3.84489 7.53997H5.77334C6.21711 7.53997 6.57686 7.91505 6.57686 8.37774C6.57686 8.84043 6.21711 9.21552 5.77334 9.21552H3.84489C3.40111 9.21552 3.04136 8.84043 3.04136 8.37774Z" fill="#41200D"/>
<path fill-rule="evenodd" clip-rule="evenodd" d="M10.5752 6.71439C10.7942 7.13595 10.6463 7.6641 10.2448 7.89404L8.42301 8.9374C8.02152 9.16734 7.51851 9.012 7.29951 8.59044C7.08051 8.16888 7.22846 7.64074 7.62995 7.4108L9.45174 6.36744C9.85324 6.1375 10.3562 6.29283 10.5752 6.71439Z" fill="#41200D"/>
</svg>
