<svg width="102" height="22" viewBox="0 0 102 22" fill="none" xmlns="http://www.w3.org/2000/svg">
<mask id="path-1-outside-1_11_1851" maskUnits="userSpaceOnUse" x="0" y="-0.253418" width="102" height="22" fill="black">
<rect fill="white" y="-0.253418" width="102" height="22"/>
<path d="M1.15751 13.1751C1.42003 11.6986 1.94507 10.4132 2.73264 9.3189C3.5202 8.22456 4.48277 7.39078 5.62036 6.81755C6.77545 6.22696 8.01805 5.93166 9.34816 5.93166C11.1333 5.93166 12.5159 6.37461 13.496 7.2605C14.4936 8.14639 15.0011 9.33627 15.0186 10.8301H13.7848C13.7673 9.63156 13.3385 8.68487 12.4984 7.99006C11.6758 7.27787 10.5645 6.92177 9.16439 6.92177C8.13181 6.92177 7.14298 7.15628 6.19791 7.62528C5.25283 8.07691 4.43902 8.78041 3.75647 9.73579C3.07391 10.6738 2.61013 11.8202 2.36511 13.1751C2.2601 13.7136 2.20759 14.2347 2.20759 14.7385C2.20759 16.2671 2.64513 17.4396 3.5202 18.256C4.41277 19.055 5.55036 19.4545 6.93296 19.4545C8.33308 19.4545 9.56692 19.1071 10.6345 18.4123C11.7196 17.7175 12.4897 16.7621 12.9447 15.5462H14.2048C13.6447 17.0401 12.7084 18.2386 11.3958 19.1419C10.0832 20.0278 8.53434 20.4707 6.7492 20.4707C4.99906 20.4707 3.59895 19.9757 2.54887 18.9855C1.51629 17.9781 1 16.6058 1 14.8688C1 14.3303 1.0525 13.7657 1.15751 13.1751Z"/>
<path d="M17.4625 13.1751C17.725 11.716 18.2413 10.4393 19.0114 9.34495C19.7989 8.25061 20.7703 7.40815 21.9254 6.81755C23.0804 6.22696 24.323 5.93166 25.6531 5.93166C27.1408 5.93166 28.3396 6.29644 29.2497 7.026C30.1772 7.75556 30.7548 8.68487 30.9823 9.81395L31.6386 6.11405H32.82L30.2735 20.2623H29.1184L29.7747 16.5363C29.1622 17.6828 28.2608 18.6295 27.0708 19.3764C25.8807 20.1059 24.5331 20.4707 23.0279 20.4707C21.2953 20.4707 19.9039 19.967 18.8539 18.9595C17.8213 17.9346 17.305 16.5537 17.305 14.8166C17.305 14.2955 17.3575 13.7484 17.4625 13.1751ZM30.3785 13.1751C30.466 12.654 30.5098 12.1937 30.5098 11.7942C30.5098 10.3177 30.0635 9.14519 29.1709 8.27667C28.2784 7.39078 27.097 6.94783 25.6269 6.94783C24.4718 6.94783 23.4042 7.1997 22.4241 7.70344C21.4616 8.18982 20.6478 8.902 19.9827 9.84001C19.3351 10.778 18.8976 11.8897 18.6701 13.1751C18.5826 13.7484 18.5388 14.2347 18.5388 14.6343C18.5388 16.1455 18.9676 17.3267 19.8252 18.1778C20.7003 19.0116 21.8903 19.4285 23.3955 19.4285C24.4981 19.4285 25.5394 19.1766 26.5195 18.6729C27.517 18.1518 28.3484 17.4222 29.0134 16.4842C29.696 15.5288 30.151 14.4258 30.3785 13.1751Z"/>
<path d="M37.0426 16.4842C36.9726 16.8316 36.9376 17.179 36.9376 17.5264C36.9376 18.1518 37.1126 18.5947 37.4627 18.8553C37.8127 19.0985 38.3902 19.22 39.1953 19.22H40.7704L40.5867 20.2623H38.8015C37.7514 20.2623 36.9726 20.0625 36.4651 19.663C35.9751 19.2635 35.73 18.6034 35.73 17.6828C35.73 17.2832 35.765 16.8837 35.835 16.4842L37.5152 7.13022H35.3625L35.5463 6.11405H37.6989L38.329 2.51837H39.5366L38.9065 6.11405H43.1069L42.9231 7.13022H38.7228L37.0426 16.4842Z"/>
<path d="M44.2273 13.1751C44.4898 11.6986 45.0149 10.4132 45.8024 9.3189C46.59 8.22456 47.5526 7.39078 48.6901 6.81755C49.8452 6.22696 51.0878 5.93166 52.4179 5.93166C54.2031 5.93166 55.5857 6.37461 56.5658 7.2605C57.5633 8.14639 58.0709 9.33627 58.0884 10.8301H56.8545C56.837 9.63156 56.4082 8.68487 55.5682 7.99006C54.7456 7.27787 53.6343 6.92177 52.2342 6.92177C51.2016 6.92177 50.2128 7.15628 49.2677 7.62528C48.3226 8.07691 47.5088 8.78041 46.8262 9.73579C46.1437 10.6738 45.6799 11.8202 45.4349 13.1751C45.3299 13.7136 45.2774 14.2347 45.2774 14.7385C45.2774 16.2671 45.7149 17.4396 46.59 18.256C47.4825 19.055 48.6201 19.4545 50.0027 19.4545C51.4029 19.4545 52.6367 19.1071 53.7043 18.4123C54.7894 17.7175 55.5594 16.7621 56.0145 15.5462H57.2746C56.7145 17.0401 55.7782 18.2386 54.4656 19.1419C53.153 20.0278 51.6041 20.4707 49.819 20.4707C48.0688 20.4707 46.6687 19.9757 45.6187 18.9855C44.5861 17.9781 44.0698 16.6058 44.0698 14.8688C44.0698 14.3303 44.1223 13.7657 44.2273 13.1751Z"/>
<path d="M60.5323 13.1751C60.7948 11.716 61.3111 10.4393 62.0812 9.34495C62.8687 8.25061 63.84 7.40815 64.9951 6.81755C66.1502 6.22696 67.3928 5.93166 68.7229 5.93166C70.2105 5.93166 71.4094 6.29644 72.3195 7.026C73.247 7.75556 73.8246 8.68487 74.0521 9.81395L74.7084 6.11405H75.8897L73.3433 20.2623H72.1882L72.8445 16.5363C72.2319 17.6828 71.3306 18.6295 70.1405 19.3764C68.9504 20.1059 67.6028 20.4707 66.0977 20.4707C64.3651 20.4707 62.9737 19.967 61.9236 18.9595C60.8911 17.9346 60.3748 16.5537 60.3748 14.8166C60.3748 14.2955 60.4273 13.7484 60.5323 13.1751ZM73.4483 13.1751C73.5358 12.654 73.5796 12.1937 73.5796 11.7942C73.5796 10.3177 73.1333 9.14519 72.2407 8.27667C71.3481 7.39078 70.1668 6.94783 68.6967 6.94783C67.5416 6.94783 66.474 7.1997 65.4939 7.70344C64.5313 8.18982 63.7175 8.902 63.0525 9.84001C62.4049 10.778 61.9674 11.8897 61.7399 13.1751C61.6524 13.7484 61.6086 14.2347 61.6086 14.6343C61.6086 16.1455 62.0374 17.3267 62.895 18.1778C63.77 19.0116 64.9601 19.4285 66.4653 19.4285C67.5678 19.4285 68.6092 19.1766 69.5892 18.6729C70.5868 18.1518 71.4181 17.4222 72.0832 16.4842C72.7657 15.5288 73.2208 14.4258 73.4483 13.1751Z"/>
<path d="M86.3342 1.78881C84.9691 1.78881 83.9715 2.04936 83.3414 2.57048C82.7289 3.09159 82.3176 3.94274 82.1076 5.12393L81.9238 6.11405H85.6254L85.4416 7.15628H81.7401L79.4036 20.2623H78.2223L80.5325 7.15628H78.406L78.5898 6.11405H80.7162L80.9 5.12393C81.1625 3.63007 81.7313 2.52705 82.6064 1.81486C83.4989 1.10268 84.8028 0.746582 86.5179 0.746582L86.3342 1.78881Z"/>
<path d="M94.8731 5.93166C96.0807 5.93166 97.1045 6.16616 97.9445 6.63516C98.8021 7.08679 99.4409 7.70344 99.8609 8.48511C100.298 9.24941 100.517 10.1093 100.517 11.0646C100.517 11.4815 100.482 11.8637 100.412 12.2111C100.307 12.8364 100.202 13.3054 100.097 13.6181H87.785C87.715 14.1739 87.68 14.5735 87.68 14.8166C87.68 16.3105 88.135 17.4569 89.0451 18.256C89.9552 19.055 91.1015 19.4545 92.4841 19.4545C93.8667 19.4545 95.0918 19.1158 96.1594 18.4384C97.2445 17.7436 98.0145 16.8056 98.4696 15.6244H99.7034C99.1434 17.0661 98.2071 18.2386 96.8945 19.1419C95.5994 20.0278 94.068 20.4707 92.3003 20.4707C90.5502 20.4707 89.1413 19.967 88.0738 18.9595C87.0237 17.952 86.4986 16.5797 86.4986 14.8427C86.4986 14.3042 86.5511 13.7484 86.6562 13.1751C86.9187 11.6986 87.4437 10.4132 88.2313 9.3189C89.0188 8.22456 89.9814 7.39078 91.119 6.81755C92.2741 6.22696 93.5254 5.93166 94.8731 5.93166ZM99.1521 12.7061C99.2747 12.2024 99.3359 11.69 99.3359 11.1688C99.3359 9.79658 98.8896 8.74567 97.997 8.01611C97.122 7.28655 96.0106 6.92177 94.663 6.92177C93.6655 6.92177 92.7029 7.1389 91.7753 7.57317C90.8477 8.00743 90.0427 8.65882 89.3601 9.52734C88.6776 10.3959 88.205 11.4555 87.9425 12.7061H99.1521Z"/>
</mask>
<path d="M1.15751 13.1751C1.42003 11.6986 1.94507 10.4132 2.73264 9.3189C3.5202 8.22456 4.48277 7.39078 5.62036 6.81755C6.77545 6.22696 8.01805 5.93166 9.34816 5.93166C11.1333 5.93166 12.5159 6.37461 13.496 7.2605C14.4936 8.14639 15.0011 9.33627 15.0186 10.8301H13.7848C13.7673 9.63156 13.3385 8.68487 12.4984 7.99006C11.6758 7.27787 10.5645 6.92177 9.16439 6.92177C8.13181 6.92177 7.14298 7.15628 6.19791 7.62528C5.25283 8.07691 4.43902 8.78041 3.75647 9.73579C3.07391 10.6738 2.61013 11.8202 2.36511 13.1751C2.2601 13.7136 2.20759 14.2347 2.20759 14.7385C2.20759 16.2671 2.64513 17.4396 3.5202 18.256C4.41277 19.055 5.55036 19.4545 6.93296 19.4545C8.33308 19.4545 9.56692 19.1071 10.6345 18.4123C11.7196 17.7175 12.4897 16.7621 12.9447 15.5462H14.2048C13.6447 17.0401 12.7084 18.2386 11.3958 19.1419C10.0832 20.0278 8.53434 20.4707 6.7492 20.4707C4.99906 20.4707 3.59895 19.9757 2.54887 18.9855C1.51629 17.9781 1 16.6058 1 14.8688C1 14.3303 1.0525 13.7657 1.15751 13.1751Z" fill="#FDD5B5"/>
<path d="M17.4625 13.1751C17.725 11.716 18.2413 10.4393 19.0114 9.34495C19.7989 8.25061 20.7703 7.40815 21.9254 6.81755C23.0804 6.22696 24.323 5.93166 25.6531 5.93166C27.1408 5.93166 28.3396 6.29644 29.2497 7.026C30.1772 7.75556 30.7548 8.68487 30.9823 9.81395L31.6386 6.11405H32.82L30.2735 20.2623H29.1184L29.7747 16.5363C29.1622 17.6828 28.2608 18.6295 27.0708 19.3764C25.8807 20.1059 24.5331 20.4707 23.0279 20.4707C21.2953 20.4707 19.9039 19.967 18.8539 18.9595C17.8213 17.9346 17.305 16.5537 17.305 14.8166C17.305 14.2955 17.3575 13.7484 17.4625 13.1751ZM30.3785 13.1751C30.466 12.654 30.5098 12.1937 30.5098 11.7942C30.5098 10.3177 30.0635 9.14519 29.1709 8.27667C28.2784 7.39078 27.097 6.94783 25.6269 6.94783C24.4718 6.94783 23.4042 7.1997 22.4241 7.70344C21.4616 8.18982 20.6478 8.902 19.9827 9.84001C19.3351 10.778 18.8976 11.8897 18.6701 13.1751C18.5826 13.7484 18.5388 14.2347 18.5388 14.6343C18.5388 16.1455 18.9676 17.3267 19.8252 18.1778C20.7003 19.0116 21.8903 19.4285 23.3955 19.4285C24.4981 19.4285 25.5394 19.1766 26.5195 18.6729C27.517 18.1518 28.3484 17.4222 29.0134 16.4842C29.696 15.5288 30.151 14.4258 30.3785 13.1751Z" fill="#FDD5B5"/>
<path d="M37.0426 16.4842C36.9726 16.8316 36.9376 17.179 36.9376 17.5264C36.9376 18.1518 37.1126 18.5947 37.4627 18.8553C37.8127 19.0985 38.3902 19.22 39.1953 19.22H40.7704L40.5867 20.2623H38.8015C37.7514 20.2623 36.9726 20.0625 36.4651 19.663C35.9751 19.2635 35.73 18.6034 35.73 17.6828C35.73 17.2832 35.765 16.8837 35.835 16.4842L37.5152 7.13022H35.3625L35.5463 6.11405H37.6989L38.329 2.51837H39.5366L38.9065 6.11405H43.1069L42.9231 7.13022H38.7228L37.0426 16.4842Z" fill="#FDD5B5"/>
<path d="M44.2273 13.1751C44.4898 11.6986 45.0149 10.4132 45.8024 9.3189C46.59 8.22456 47.5526 7.39078 48.6901 6.81755C49.8452 6.22696 51.0878 5.93166 52.4179 5.93166C54.2031 5.93166 55.5857 6.37461 56.5658 7.2605C57.5633 8.14639 58.0709 9.33627 58.0884 10.8301H56.8545C56.837 9.63156 56.4082 8.68487 55.5682 7.99006C54.7456 7.27787 53.6343 6.92177 52.2342 6.92177C51.2016 6.92177 50.2128 7.15628 49.2677 7.62528C48.3226 8.07691 47.5088 8.78041 46.8262 9.73579C46.1437 10.6738 45.6799 11.8202 45.4349 13.1751C45.3299 13.7136 45.2774 14.2347 45.2774 14.7385C45.2774 16.2671 45.7149 17.4396 46.59 18.256C47.4825 19.055 48.6201 19.4545 50.0027 19.4545C51.4029 19.4545 52.6367 19.1071 53.7043 18.4123C54.7894 17.7175 55.5594 16.7621 56.0145 15.5462H57.2746C56.7145 17.0401 55.7782 18.2386 54.4656 19.1419C53.153 20.0278 51.6041 20.4707 49.819 20.4707C48.0688 20.4707 46.6687 19.9757 45.6187 18.9855C44.5861 17.9781 44.0698 16.6058 44.0698 14.8688C44.0698 14.3303 44.1223 13.7657 44.2273 13.1751Z" fill="#FDD5B5"/>
<path d="M60.5323 13.1751C60.7948 11.716 61.3111 10.4393 62.0812 9.34495C62.8687 8.25061 63.84 7.40815 64.9951 6.81755C66.1502 6.22696 67.3928 5.93166 68.7229 5.93166C70.2105 5.93166 71.4094 6.29644 72.3195 7.026C73.247 7.75556 73.8246 8.68487 74.0521 9.81395L74.7084 6.11405H75.8897L73.3433 20.2623H72.1882L72.8445 16.5363C72.2319 17.6828 71.3306 18.6295 70.1405 19.3764C68.9504 20.1059 67.6028 20.4707 66.0977 20.4707C64.3651 20.4707 62.9737 19.967 61.9236 18.9595C60.8911 17.9346 60.3748 16.5537 60.3748 14.8166C60.3748 14.2955 60.4273 13.7484 60.5323 13.1751ZM73.4483 13.1751C73.5358 12.654 73.5796 12.1937 73.5796 11.7942C73.5796 10.3177 73.1333 9.14519 72.2407 8.27667C71.3481 7.39078 70.1668 6.94783 68.6967 6.94783C67.5416 6.94783 66.474 7.1997 65.4939 7.70344C64.5313 8.18982 63.7175 8.902 63.0525 9.84001C62.4049 10.778 61.9674 11.8897 61.7399 13.1751C61.6524 13.7484 61.6086 14.2347 61.6086 14.6343C61.6086 16.1455 62.0374 17.3267 62.895 18.1778C63.77 19.0116 64.9601 19.4285 66.4653 19.4285C67.5678 19.4285 68.6092 19.1766 69.5892 18.6729C70.5868 18.1518 71.4181 17.4222 72.0832 16.4842C72.7657 15.5288 73.2208 14.4258 73.4483 13.1751Z" fill="#FDD5B5"/>
<path d="M86.3342 1.78881C84.9691 1.78881 83.9715 2.04936 83.3414 2.57048C82.7289 3.09159 82.3176 3.94274 82.1076 5.12393L81.9238 6.11405H85.6254L85.4416 7.15628H81.7401L79.4036 20.2623H78.2223L80.5325 7.15628H78.406L78.5898 6.11405H80.7162L80.9 5.12393C81.1625 3.63007 81.7313 2.52705 82.6064 1.81486C83.4989 1.10268 84.8028 0.746582 86.5179 0.746582L86.3342 1.78881Z" fill="#FDD5B5"/>
<path d="M94.8731 5.93166C96.0807 5.93166 97.1045 6.16616 97.9445 6.63516C98.8021 7.08679 99.4409 7.70344 99.8609 8.48511C100.298 9.24941 100.517 10.1093 100.517 11.0646C100.517 11.4815 100.482 11.8637 100.412 12.2111C100.307 12.8364 100.202 13.3054 100.097 13.6181H87.785C87.715 14.1739 87.68 14.5735 87.68 14.8166C87.68 16.3105 88.135 17.4569 89.0451 18.256C89.9552 19.055 91.1015 19.4545 92.4841 19.4545C93.8667 19.4545 95.0918 19.1158 96.1594 18.4384C97.2445 17.7436 98.0145 16.8056 98.4696 15.6244H99.7034C99.1434 17.0661 98.2071 18.2386 96.8945 19.1419C95.5994 20.0278 94.068 20.4707 92.3003 20.4707C90.5502 20.4707 89.1413 19.967 88.0738 18.9595C87.0237 17.952 86.4986 16.5797 86.4986 14.8427C86.4986 14.3042 86.5511 13.7484 86.6562 13.1751C86.9187 11.6986 87.4437 10.4132 88.2313 9.3189C89.0188 8.22456 89.9814 7.39078 91.119 6.81755C92.2741 6.22696 93.5254 5.93166 94.8731 5.93166ZM99.1521 12.7061C99.2747 12.2024 99.3359 11.69 99.3359 11.1688C99.3359 9.79658 98.8896 8.74567 97.997 8.01611C97.122 7.28655 96.0106 6.92177 94.663 6.92177C93.6655 6.92177 92.7029 7.1389 91.7753 7.57317C90.8477 8.00743 90.0427 8.65882 89.3601 9.52734C88.6776 10.3959 88.205 11.4555 87.9425 12.7061H99.1521Z" fill="#FDD5B5"/>
<path d="M1.15751 13.1751C1.42003 11.6986 1.94507 10.4132 2.73264 9.3189C3.5202 8.22456 4.48277 7.39078 5.62036 6.81755C6.77545 6.22696 8.01805 5.93166 9.34816 5.93166C11.1333 5.93166 12.5159 6.37461 13.496 7.2605C14.4936 8.14639 15.0011 9.33627 15.0186 10.8301H13.7848C13.7673 9.63156 13.3385 8.68487 12.4984 7.99006C11.6758 7.27787 10.5645 6.92177 9.16439 6.92177C8.13181 6.92177 7.14298 7.15628 6.19791 7.62528C5.25283 8.07691 4.43902 8.78041 3.75647 9.73579C3.07391 10.6738 2.61013 11.8202 2.36511 13.1751C2.2601 13.7136 2.20759 14.2347 2.20759 14.7385C2.20759 16.2671 2.64513 17.4396 3.5202 18.256C4.41277 19.055 5.55036 19.4545 6.93296 19.4545C8.33308 19.4545 9.56692 19.1071 10.6345 18.4123C11.7196 17.7175 12.4897 16.7621 12.9447 15.5462H14.2048C13.6447 17.0401 12.7084 18.2386 11.3958 19.1419C10.0832 20.0278 8.53434 20.4707 6.7492 20.4707C4.99906 20.4707 3.59895 19.9757 2.54887 18.9855C1.51629 17.9781 1 16.6058 1 14.8688C1 14.3303 1.0525 13.7657 1.15751 13.1751Z" stroke="#FDD5B5" stroke-width="1.2" mask="url(#path-1-outside-1_11_1851)"/>
<path d="M17.4625 13.1751C17.725 11.716 18.2413 10.4393 19.0114 9.34495C19.7989 8.25061 20.7703 7.40815 21.9254 6.81755C23.0804 6.22696 24.323 5.93166 25.6531 5.93166C27.1408 5.93166 28.3396 6.29644 29.2497 7.026C30.1772 7.75556 30.7548 8.68487 30.9823 9.81395L31.6386 6.11405H32.82L30.2735 20.2623H29.1184L29.7747 16.5363C29.1622 17.6828 28.2608 18.6295 27.0708 19.3764C25.8807 20.1059 24.5331 20.4707 23.0279 20.4707C21.2953 20.4707 19.9039 19.967 18.8539 18.9595C17.8213 17.9346 17.305 16.5537 17.305 14.8166C17.305 14.2955 17.3575 13.7484 17.4625 13.1751ZM30.3785 13.1751C30.466 12.654 30.5098 12.1937 30.5098 11.7942C30.5098 10.3177 30.0635 9.14519 29.1709 8.27667C28.2784 7.39078 27.097 6.94783 25.6269 6.94783C24.4718 6.94783 23.4042 7.1997 22.4241 7.70344C21.4616 8.18982 20.6478 8.902 19.9827 9.84001C19.3351 10.778 18.8976 11.8897 18.6701 13.1751C18.5826 13.7484 18.5388 14.2347 18.5388 14.6343C18.5388 16.1455 18.9676 17.3267 19.8252 18.1778C20.7003 19.0116 21.8903 19.4285 23.3955 19.4285C24.4981 19.4285 25.5394 19.1766 26.5195 18.6729C27.517 18.1518 28.3484 17.4222 29.0134 16.4842C29.696 15.5288 30.151 14.4258 30.3785 13.1751Z" stroke="#FDD5B5" stroke-width="1.2" mask="url(#path-1-outside-1_11_1851)"/>
<path d="M37.0426 16.4842C36.9726 16.8316 36.9376 17.179 36.9376 17.5264C36.9376 18.1518 37.1126 18.5947 37.4627 18.8553C37.8127 19.0985 38.3902 19.22 39.1953 19.22H40.7704L40.5867 20.2623H38.8015C37.7514 20.2623 36.9726 20.0625 36.4651 19.663C35.9751 19.2635 35.73 18.6034 35.73 17.6828C35.73 17.2832 35.765 16.8837 35.835 16.4842L37.5152 7.13022H35.3625L35.5463 6.11405H37.6989L38.329 2.51837H39.5366L38.9065 6.11405H43.1069L42.9231 7.13022H38.7228L37.0426 16.4842Z" stroke="#FDD5B5" stroke-width="1.2" mask="url(#path-1-outside-1_11_1851)"/>
<path d="M44.2273 13.1751C44.4898 11.6986 45.0149 10.4132 45.8024 9.3189C46.59 8.22456 47.5526 7.39078 48.6901 6.81755C49.8452 6.22696 51.0878 5.93166 52.4179 5.93166C54.2031 5.93166 55.5857 6.37461 56.5658 7.2605C57.5633 8.14639 58.0709 9.33627 58.0884 10.8301H56.8545C56.837 9.63156 56.4082 8.68487 55.5682 7.99006C54.7456 7.27787 53.6343 6.92177 52.2342 6.92177C51.2016 6.92177 50.2128 7.15628 49.2677 7.62528C48.3226 8.07691 47.5088 8.78041 46.8262 9.73579C46.1437 10.6738 45.6799 11.8202 45.4349 13.1751C45.3299 13.7136 45.2774 14.2347 45.2774 14.7385C45.2774 16.2671 45.7149 17.4396 46.59 18.256C47.4825 19.055 48.6201 19.4545 50.0027 19.4545C51.4029 19.4545 52.6367 19.1071 53.7043 18.4123C54.7894 17.7175 55.5594 16.7621 56.0145 15.5462H57.2746C56.7145 17.0401 55.7782 18.2386 54.4656 19.1419C53.153 20.0278 51.6041 20.4707 49.819 20.4707C48.0688 20.4707 46.6687 19.9757 45.6187 18.9855C44.5861 17.9781 44.0698 16.6058 44.0698 14.8688C44.0698 14.3303 44.1223 13.7657 44.2273 13.1751Z" stroke="#FDD5B5" stroke-width="1.2" mask="url(#path-1-outside-1_11_1851)"/>
<path d="M60.5323 13.1751C60.7948 11.716 61.3111 10.4393 62.0812 9.34495C62.8687 8.25061 63.84 7.40815 64.9951 6.81755C66.1502 6.22696 67.3928 5.93166 68.7229 5.93166C70.2105 5.93166 71.4094 6.29644 72.3195 7.026C73.247 7.75556 73.8246 8.68487 74.0521 9.81395L74.7084 6.11405H75.8897L73.3433 20.2623H72.1882L72.8445 16.5363C72.2319 17.6828 71.3306 18.6295 70.1405 19.3764C68.9504 20.1059 67.6028 20.4707 66.0977 20.4707C64.3651 20.4707 62.9737 19.967 61.9236 18.9595C60.8911 17.9346 60.3748 16.5537 60.3748 14.8166C60.3748 14.2955 60.4273 13.7484 60.5323 13.1751ZM73.4483 13.1751C73.5358 12.654 73.5796 12.1937 73.5796 11.7942C73.5796 10.3177 73.1333 9.14519 72.2407 8.27667C71.3481 7.39078 70.1668 6.94783 68.6967 6.94783C67.5416 6.94783 66.474 7.1997 65.4939 7.70344C64.5313 8.18982 63.7175 8.902 63.0525 9.84001C62.4049 10.778 61.9674 11.8897 61.7399 13.1751C61.6524 13.7484 61.6086 14.2347 61.6086 14.6343C61.6086 16.1455 62.0374 17.3267 62.895 18.1778C63.77 19.0116 64.9601 19.4285 66.4653 19.4285C67.5678 19.4285 68.6092 19.1766 69.5892 18.6729C70.5868 18.1518 71.4181 17.4222 72.0832 16.4842C72.7657 15.5288 73.2208 14.4258 73.4483 13.1751Z" stroke="#FDD5B5" stroke-width="1.2" mask="url(#path-1-outside-1_11_1851)"/>
<path d="M86.3342 1.78881C84.9691 1.78881 83.9715 2.04936 83.3414 2.57048C82.7289 3.09159 82.3176 3.94274 82.1076 5.12393L81.9238 6.11405H85.6254L85.4416 7.15628H81.7401L79.4036 20.2623H78.2223L80.5325 7.15628H78.406L78.5898 6.11405H80.7162L80.9 5.12393C81.1625 3.63007 81.7313 2.52705 82.6064 1.81486C83.4989 1.10268 84.8028 0.746582 86.5179 0.746582L86.3342 1.78881Z" stroke="#FDD5B5" stroke-width="1.2" mask="url(#path-1-outside-1_11_1851)"/>
<path d="M94.8731 5.93166C96.0807 5.93166 97.1045 6.16616 97.9445 6.63516C98.8021 7.08679 99.4409 7.70344 99.8609 8.48511C100.298 9.24941 100.517 10.1093 100.517 11.0646C100.517 11.4815 100.482 11.8637 100.412 12.2111C100.307 12.8364 100.202 13.3054 100.097 13.6181H87.785C87.715 14.1739 87.68 14.5735 87.68 14.8166C87.68 16.3105 88.135 17.4569 89.0451 18.256C89.9552 19.055 91.1015 19.4545 92.4841 19.4545C93.8667 19.4545 95.0918 19.1158 96.1594 18.4384C97.2445 17.7436 98.0145 16.8056 98.4696 15.6244H99.7034C99.1434 17.0661 98.2071 18.2386 96.8945 19.1419C95.5994 20.0278 94.068 20.4707 92.3003 20.4707C90.5502 20.4707 89.1413 19.967 88.0738 18.9595C87.0237 17.952 86.4986 16.5797 86.4986 14.8427C86.4986 14.3042 86.5511 13.7484 86.6562 13.1751C86.9187 11.6986 87.4437 10.4132 88.2313 9.3189C89.0188 8.22456 89.9814 7.39078 91.119 6.81755C92.2741 6.22696 93.5254 5.93166 94.8731 5.93166ZM99.1521 12.7061C99.2747 12.2024 99.3359 11.69 99.3359 11.1688C99.3359 9.79658 98.8896 8.74567 97.997 8.01611C97.122 7.28655 96.0106 6.92177 94.663 6.92177C93.6655 6.92177 92.7029 7.1389 91.7753 7.57317C90.8477 8.00743 90.0427 8.65882 89.3601 9.52734C88.6776 10.3959 88.205 11.4555 87.9425 12.7061H99.1521Z" stroke="#FDD5B5" stroke-width="1.2" mask="url(#path-1-outside-1_11_1851)"/>
</svg>
