<svg width="102" height="22" viewBox="0 0 102 22" fill="none" xmlns="http://www.w3.org/2000/svg">
<mask id="path-1-outside-1_11_1870" maskUnits="userSpaceOnUse" x="0.241211" y="-0.253296" width="102" height="22" fill="black">
<rect fill="white" x="0.241211" y="-0.253296" width="102" height="22"/>
<path d="M1.39872 13.1753C1.66124 11.6988 2.18628 10.4134 2.97385 9.31902C3.76141 8.22468 4.72398 7.3909 5.86157 6.81767C7.01666 6.22708 8.25926 5.93178 9.58937 5.93178C11.3745 5.93178 12.7571 6.37473 13.7372 7.26062C14.7348 8.14651 15.2423 9.33639 15.2598 10.8302H14.026C14.0085 9.63169 13.5797 8.685 12.7396 7.99018C11.917 7.27799 10.8057 6.9219 9.4056 6.9219C8.37302 6.9219 7.38419 7.1564 6.43912 7.6254C5.49404 8.07703 4.68023 8.78053 3.99768 9.73591C3.31512 10.6739 2.85134 11.8204 2.60632 13.1753C2.50131 13.7137 2.44881 14.2349 2.44881 14.7386C2.44881 16.2672 2.88634 17.4397 3.76141 18.2561C4.65398 19.0552 5.79157 19.4547 7.17418 19.4547C8.57429 19.4547 9.80813 19.1073 10.8757 18.4124C11.9608 17.7176 12.7309 16.7623 13.1859 15.5463H14.446C13.886 17.0402 12.9496 18.2387 11.637 19.142C10.3244 20.0279 8.77555 20.4708 6.99041 20.4708C5.24027 20.4708 3.84016 19.9758 2.79008 18.9857C1.7575 17.9782 1.24121 16.6059 1.24121 14.8689C1.24121 14.3304 1.29372 13.7659 1.39872 13.1753Z"/>
<path d="M17.7037 13.1753C17.9662 11.7161 18.4825 10.4394 19.2526 9.34507C20.0401 8.25073 21.0115 7.40827 22.1666 6.81767C23.3217 6.22708 24.5643 5.93178 25.8944 5.93178C27.382 5.93178 28.5808 6.29656 29.4909 7.02612C30.4185 7.75568 30.996 8.685 31.2235 9.81407L31.8798 6.11417H33.0612L30.5147 20.2624H29.3596L30.0159 16.5364C29.4034 17.6829 28.5021 18.6296 27.312 19.3765C26.1219 20.1061 24.7743 20.4708 23.2691 20.4708C21.5365 20.4708 20.1452 19.9671 19.0951 18.9596C18.0625 17.9348 17.5462 16.5538 17.5462 14.8168C17.5462 14.2956 17.5987 13.7485 17.7037 13.1753ZM30.6197 13.1753C30.7072 12.6541 30.751 12.1938 30.751 11.7943C30.751 10.3178 30.3047 9.14531 29.4121 8.27679C28.5196 7.3909 27.3382 6.94795 25.8681 6.94795C24.713 6.94795 23.6454 7.19982 22.6654 7.70357C21.7028 8.18994 20.889 8.90213 20.2239 9.84013C19.5764 10.7781 19.1388 11.8898 18.9113 13.1753C18.8238 13.7485 18.78 14.2349 18.78 14.6344C18.78 16.1456 19.2088 17.3268 20.0664 18.1779C20.9415 19.0117 22.1316 19.4286 23.6367 19.4286C24.7393 19.4286 25.7806 19.1767 26.7607 18.673C27.7583 18.1519 28.5896 17.4223 29.2546 16.4843C29.9372 15.529 30.3922 14.4259 30.6197 13.1753Z"/>
<path d="M37.2839 16.4843C37.2138 16.8317 37.1788 17.1791 37.1788 17.5266C37.1788 18.1519 37.3539 18.5948 37.7039 18.8554C38.0539 19.0986 38.6315 19.2202 39.4365 19.2202H41.0116L40.8279 20.2624H39.0427C37.9927 20.2624 37.2138 20.0626 36.7063 19.6631C36.2163 19.2636 35.9712 18.6035 35.9712 17.6829C35.9712 17.2834 36.0063 16.8838 36.0763 16.4843L37.7564 7.13034H35.6037L35.7875 6.11417H37.9402L38.5702 2.51849H39.7778L39.1477 6.11417H43.3481L43.1643 7.13034H38.964L37.2839 16.4843Z"/>
<path d="M44.4685 13.1753C44.731 11.6988 45.2561 10.4134 46.0436 9.31902C46.8312 8.22468 47.7938 7.3909 48.9314 6.81767C50.0864 6.22708 51.329 5.93178 52.6591 5.93178C54.4443 5.93178 55.8269 6.37473 56.807 7.26062C57.8046 8.14651 58.3121 9.33639 58.3296 10.8302H57.0957C57.0782 9.63169 56.6495 8.685 55.8094 7.99018C54.9868 7.27799 53.8755 6.9219 52.4754 6.9219C51.4428 6.9219 50.454 7.1564 49.5089 7.6254C48.5638 8.07703 47.75 8.78053 47.0675 9.73591C46.3849 10.6739 45.9211 11.8204 45.6761 13.1753C45.5711 13.7137 45.5186 14.2349 45.5186 14.7386C45.5186 16.2672 45.9561 17.4397 46.8312 18.2561C47.7238 19.0552 48.8614 19.4547 50.244 19.4547C51.6441 19.4547 52.8779 19.1073 53.9455 18.4124C55.0306 17.7176 55.8006 16.7623 56.2557 15.5463H57.5158C56.9557 17.0402 56.0194 18.2387 54.7068 19.142C53.3942 20.0279 51.8453 20.4708 50.0602 20.4708C48.3101 20.4708 46.9099 19.9758 45.8599 18.9857C44.8273 17.9782 44.311 16.6059 44.311 14.8689C44.311 14.3304 44.3635 13.7659 44.4685 13.1753Z"/>
<path d="M60.7735 13.1753C61.036 11.7161 61.5523 10.4394 62.3224 9.34507C63.1099 8.25073 64.0813 7.40827 65.2363 6.81767C66.3914 6.22708 67.634 5.93178 68.9641 5.93178C70.4518 5.93178 71.6506 6.29656 72.5607 7.02612C73.4882 7.75568 74.0658 8.685 74.2933 9.81407L74.9496 6.11417H76.131L73.5845 20.2624H72.4294L73.0857 16.5364C72.4732 17.6829 71.5718 18.6296 70.3817 19.3765C69.1917 20.1061 67.844 20.4708 66.3389 20.4708C64.6063 20.4708 63.2149 19.9671 62.1649 18.9596C61.1323 17.9348 60.616 16.5538 60.616 14.8168C60.616 14.2956 60.6685 13.7485 60.7735 13.1753ZM73.6895 13.1753C73.777 12.6541 73.8208 12.1938 73.8208 11.7943C73.8208 10.3178 73.3745 9.14531 72.4819 8.27679C71.5893 7.3909 70.408 6.94795 68.9379 6.94795C67.7828 6.94795 66.7152 7.19982 65.7351 7.70357C64.7726 8.18994 63.9587 8.90213 63.2937 9.84013C62.6461 10.7781 62.2086 11.8898 61.9811 13.1753C61.8936 13.7485 61.8498 14.2349 61.8498 14.6344C61.8498 16.1456 62.2786 17.3268 63.1362 18.1779C64.0112 19.0117 65.2013 19.4286 66.7065 19.4286C67.8091 19.4286 68.8504 19.1767 69.8305 18.673C70.828 18.1519 71.6593 17.4223 72.3244 16.4843C73.007 15.529 73.462 14.4259 73.6895 13.1753Z"/>
<path d="M86.5754 1.78893C85.2103 1.78893 84.2127 2.04949 83.5826 2.5706C82.9701 3.09171 82.5588 3.94286 82.3488 5.12406L82.165 6.11417H85.8666L85.6828 7.1564H81.9813L79.6448 20.2624H78.4635L80.7737 7.1564H78.6472L78.831 6.11417H80.9574L81.1412 5.12406C81.4037 3.6302 81.9725 2.52717 82.8476 1.81499C83.7402 1.1028 85.044 0.746704 86.7591 0.746704L86.5754 1.78893Z"/>
<path d="M95.1143 5.93178C96.3219 5.93178 97.3457 6.16628 98.1858 6.63528C99.0433 7.08692 99.6821 7.70357 100.102 8.48524C100.54 9.24954 100.758 10.1094 100.758 11.0647C100.758 11.4816 100.723 11.8638 100.653 12.2112C100.548 12.8365 100.443 13.3055 100.338 13.6182H88.0262C87.9562 14.1741 87.9212 14.5736 87.9212 14.8168C87.9212 16.3106 88.3762 17.4571 89.2863 18.2561C90.1964 19.0552 91.3427 19.4547 92.7253 19.4547C94.1079 19.4547 95.333 19.1159 96.4006 18.4385C97.4857 17.7437 98.2558 16.8057 98.7108 15.6245H99.9446C99.3846 17.0662 98.4483 18.2387 97.1357 19.142C95.8406 20.0279 94.3092 20.4708 92.5416 20.4708C90.7914 20.4708 89.3826 19.9671 88.315 18.9596C87.2649 17.9521 86.7399 16.5799 86.7399 14.8428C86.7399 14.3043 86.7924 13.7485 86.8974 13.1753C87.1599 11.6988 87.6849 10.4134 88.4725 9.31902C89.2601 8.22468 90.2226 7.3909 91.3602 6.81767C92.5153 6.22708 93.7667 5.93178 95.1143 5.93178ZM99.3933 12.7063C99.5159 12.2025 99.5771 11.6901 99.5771 11.169C99.5771 9.7967 99.1308 8.74579 98.2383 8.01623C97.3632 7.28668 96.2519 6.9219 94.9043 6.9219C93.9067 6.9219 92.9441 7.13903 92.0165 7.57329C91.0889 8.00755 90.2839 8.65894 89.6013 9.52746C88.9188 10.396 88.4462 11.4556 88.1837 12.7063H99.3933Z"/>
</mask>
<path d="M1.39872 13.1753C1.66124 11.6988 2.18628 10.4134 2.97385 9.31902C3.76141 8.22468 4.72398 7.3909 5.86157 6.81767C7.01666 6.22708 8.25926 5.93178 9.58937 5.93178C11.3745 5.93178 12.7571 6.37473 13.7372 7.26062C14.7348 8.14651 15.2423 9.33639 15.2598 10.8302H14.026C14.0085 9.63169 13.5797 8.685 12.7396 7.99018C11.917 7.27799 10.8057 6.9219 9.4056 6.9219C8.37302 6.9219 7.38419 7.1564 6.43912 7.6254C5.49404 8.07703 4.68023 8.78053 3.99768 9.73591C3.31512 10.6739 2.85134 11.8204 2.60632 13.1753C2.50131 13.7137 2.44881 14.2349 2.44881 14.7386C2.44881 16.2672 2.88634 17.4397 3.76141 18.2561C4.65398 19.0552 5.79157 19.4547 7.17418 19.4547C8.57429 19.4547 9.80813 19.1073 10.8757 18.4124C11.9608 17.7176 12.7309 16.7623 13.1859 15.5463H14.446C13.886 17.0402 12.9496 18.2387 11.637 19.142C10.3244 20.0279 8.77555 20.4708 6.99041 20.4708C5.24027 20.4708 3.84016 19.9758 2.79008 18.9857C1.7575 17.9782 1.24121 16.6059 1.24121 14.8689C1.24121 14.3304 1.29372 13.7659 1.39872 13.1753Z" fill="#41200D"/>
<path d="M17.7037 13.1753C17.9662 11.7161 18.4825 10.4394 19.2526 9.34507C20.0401 8.25073 21.0115 7.40827 22.1666 6.81767C23.3217 6.22708 24.5643 5.93178 25.8944 5.93178C27.382 5.93178 28.5808 6.29656 29.4909 7.02612C30.4185 7.75568 30.996 8.685 31.2235 9.81407L31.8798 6.11417H33.0612L30.5147 20.2624H29.3596L30.0159 16.5364C29.4034 17.6829 28.5021 18.6296 27.312 19.3765C26.1219 20.1061 24.7743 20.4708 23.2691 20.4708C21.5365 20.4708 20.1452 19.9671 19.0951 18.9596C18.0625 17.9348 17.5462 16.5538 17.5462 14.8168C17.5462 14.2956 17.5987 13.7485 17.7037 13.1753ZM30.6197 13.1753C30.7072 12.6541 30.751 12.1938 30.751 11.7943C30.751 10.3178 30.3047 9.14531 29.4121 8.27679C28.5196 7.3909 27.3382 6.94795 25.8681 6.94795C24.713 6.94795 23.6454 7.19982 22.6654 7.70357C21.7028 8.18994 20.889 8.90213 20.2239 9.84013C19.5764 10.7781 19.1388 11.8898 18.9113 13.1753C18.8238 13.7485 18.78 14.2349 18.78 14.6344C18.78 16.1456 19.2088 17.3268 20.0664 18.1779C20.9415 19.0117 22.1316 19.4286 23.6367 19.4286C24.7393 19.4286 25.7806 19.1767 26.7607 18.673C27.7583 18.1519 28.5896 17.4223 29.2546 16.4843C29.9372 15.529 30.3922 14.4259 30.6197 13.1753Z" fill="#41200D"/>
<path d="M37.2839 16.4843C37.2138 16.8317 37.1788 17.1791 37.1788 17.5266C37.1788 18.1519 37.3539 18.5948 37.7039 18.8554C38.0539 19.0986 38.6315 19.2202 39.4365 19.2202H41.0116L40.8279 20.2624H39.0427C37.9927 20.2624 37.2138 20.0626 36.7063 19.6631C36.2163 19.2636 35.9712 18.6035 35.9712 17.6829C35.9712 17.2834 36.0063 16.8838 36.0763 16.4843L37.7564 7.13034H35.6037L35.7875 6.11417H37.9402L38.5702 2.51849H39.7778L39.1477 6.11417H43.3481L43.1643 7.13034H38.964L37.2839 16.4843Z" fill="#41200D"/>
<path d="M44.4685 13.1753C44.731 11.6988 45.2561 10.4134 46.0436 9.31902C46.8312 8.22468 47.7938 7.3909 48.9314 6.81767C50.0864 6.22708 51.329 5.93178 52.6591 5.93178C54.4443 5.93178 55.8269 6.37473 56.807 7.26062C57.8046 8.14651 58.3121 9.33639 58.3296 10.8302H57.0957C57.0782 9.63169 56.6495 8.685 55.8094 7.99018C54.9868 7.27799 53.8755 6.9219 52.4754 6.9219C51.4428 6.9219 50.454 7.1564 49.5089 7.6254C48.5638 8.07703 47.75 8.78053 47.0675 9.73591C46.3849 10.6739 45.9211 11.8204 45.6761 13.1753C45.5711 13.7137 45.5186 14.2349 45.5186 14.7386C45.5186 16.2672 45.9561 17.4397 46.8312 18.2561C47.7238 19.0552 48.8614 19.4547 50.244 19.4547C51.6441 19.4547 52.8779 19.1073 53.9455 18.4124C55.0306 17.7176 55.8006 16.7623 56.2557 15.5463H57.5158C56.9557 17.0402 56.0194 18.2387 54.7068 19.142C53.3942 20.0279 51.8453 20.4708 50.0602 20.4708C48.3101 20.4708 46.9099 19.9758 45.8599 18.9857C44.8273 17.9782 44.311 16.6059 44.311 14.8689C44.311 14.3304 44.3635 13.7659 44.4685 13.1753Z" fill="#41200D"/>
<path d="M60.7735 13.1753C61.036 11.7161 61.5523 10.4394 62.3224 9.34507C63.1099 8.25073 64.0813 7.40827 65.2363 6.81767C66.3914 6.22708 67.634 5.93178 68.9641 5.93178C70.4518 5.93178 71.6506 6.29656 72.5607 7.02612C73.4882 7.75568 74.0658 8.685 74.2933 9.81407L74.9496 6.11417H76.131L73.5845 20.2624H72.4294L73.0857 16.5364C72.4732 17.6829 71.5718 18.6296 70.3817 19.3765C69.1917 20.1061 67.844 20.4708 66.3389 20.4708C64.6063 20.4708 63.2149 19.9671 62.1649 18.9596C61.1323 17.9348 60.616 16.5538 60.616 14.8168C60.616 14.2956 60.6685 13.7485 60.7735 13.1753ZM73.6895 13.1753C73.777 12.6541 73.8208 12.1938 73.8208 11.7943C73.8208 10.3178 73.3745 9.14531 72.4819 8.27679C71.5893 7.3909 70.408 6.94795 68.9379 6.94795C67.7828 6.94795 66.7152 7.19982 65.7351 7.70357C64.7726 8.18994 63.9587 8.90213 63.2937 9.84013C62.6461 10.7781 62.2086 11.8898 61.9811 13.1753C61.8936 13.7485 61.8498 14.2349 61.8498 14.6344C61.8498 16.1456 62.2786 17.3268 63.1362 18.1779C64.0112 19.0117 65.2013 19.4286 66.7065 19.4286C67.8091 19.4286 68.8504 19.1767 69.8305 18.673C70.828 18.1519 71.6593 17.4223 72.3244 16.4843C73.007 15.529 73.462 14.4259 73.6895 13.1753Z" fill="#41200D"/>
<path d="M86.5754 1.78893C85.2103 1.78893 84.2127 2.04949 83.5826 2.5706C82.9701 3.09171 82.5588 3.94286 82.3488 5.12406L82.165 6.11417H85.8666L85.6828 7.1564H81.9813L79.6448 20.2624H78.4635L80.7737 7.1564H78.6472L78.831 6.11417H80.9574L81.1412 5.12406C81.4037 3.6302 81.9725 2.52717 82.8476 1.81499C83.7402 1.1028 85.044 0.746704 86.7591 0.746704L86.5754 1.78893Z" fill="#41200D"/>
<path d="M95.1143 5.93178C96.3219 5.93178 97.3457 6.16628 98.1858 6.63528C99.0433 7.08692 99.6821 7.70357 100.102 8.48524C100.54 9.24954 100.758 10.1094 100.758 11.0647C100.758 11.4816 100.723 11.8638 100.653 12.2112C100.548 12.8365 100.443 13.3055 100.338 13.6182H88.0262C87.9562 14.1741 87.9212 14.5736 87.9212 14.8168C87.9212 16.3106 88.3762 17.4571 89.2863 18.2561C90.1964 19.0552 91.3427 19.4547 92.7253 19.4547C94.1079 19.4547 95.333 19.1159 96.4006 18.4385C97.4857 17.7437 98.2558 16.8057 98.7108 15.6245H99.9446C99.3846 17.0662 98.4483 18.2387 97.1357 19.142C95.8406 20.0279 94.3092 20.4708 92.5416 20.4708C90.7914 20.4708 89.3826 19.9671 88.315 18.9596C87.2649 17.9521 86.7399 16.5799 86.7399 14.8428C86.7399 14.3043 86.7924 13.7485 86.8974 13.1753C87.1599 11.6988 87.6849 10.4134 88.4725 9.31902C89.2601 8.22468 90.2226 7.3909 91.3602 6.81767C92.5153 6.22708 93.7667 5.93178 95.1143 5.93178ZM99.3933 12.7063C99.5159 12.2025 99.5771 11.6901 99.5771 11.169C99.5771 9.7967 99.1308 8.74579 98.2383 8.01623C97.3632 7.28668 96.2519 6.9219 94.9043 6.9219C93.9067 6.9219 92.9441 7.13903 92.0165 7.57329C91.0889 8.00755 90.2839 8.65894 89.6013 9.52746C88.9188 10.396 88.4462 11.4556 88.1837 12.7063H99.3933Z" fill="#41200D"/>
<path d="M1.39872 13.1753C1.66124 11.6988 2.18628 10.4134 2.97385 9.31902C3.76141 8.22468 4.72398 7.3909 5.86157 6.81767C7.01666 6.22708 8.25926 5.93178 9.58937 5.93178C11.3745 5.93178 12.7571 6.37473 13.7372 7.26062C14.7348 8.14651 15.2423 9.33639 15.2598 10.8302H14.026C14.0085 9.63169 13.5797 8.685 12.7396 7.99018C11.917 7.27799 10.8057 6.9219 9.4056 6.9219C8.37302 6.9219 7.38419 7.1564 6.43912 7.6254C5.49404 8.07703 4.68023 8.78053 3.99768 9.73591C3.31512 10.6739 2.85134 11.8204 2.60632 13.1753C2.50131 13.7137 2.44881 14.2349 2.44881 14.7386C2.44881 16.2672 2.88634 17.4397 3.76141 18.2561C4.65398 19.0552 5.79157 19.4547 7.17418 19.4547C8.57429 19.4547 9.80813 19.1073 10.8757 18.4124C11.9608 17.7176 12.7309 16.7623 13.1859 15.5463H14.446C13.886 17.0402 12.9496 18.2387 11.637 19.142C10.3244 20.0279 8.77555 20.4708 6.99041 20.4708C5.24027 20.4708 3.84016 19.9758 2.79008 18.9857C1.7575 17.9782 1.24121 16.6059 1.24121 14.8689C1.24121 14.3304 1.29372 13.7659 1.39872 13.1753Z" stroke="#41200D" stroke-width="1.2" mask="url(#path-1-outside-1_11_1870)"/>
<path d="M17.7037 13.1753C17.9662 11.7161 18.4825 10.4394 19.2526 9.34507C20.0401 8.25073 21.0115 7.40827 22.1666 6.81767C23.3217 6.22708 24.5643 5.93178 25.8944 5.93178C27.382 5.93178 28.5808 6.29656 29.4909 7.02612C30.4185 7.75568 30.996 8.685 31.2235 9.81407L31.8798 6.11417H33.0612L30.5147 20.2624H29.3596L30.0159 16.5364C29.4034 17.6829 28.5021 18.6296 27.312 19.3765C26.1219 20.1061 24.7743 20.4708 23.2691 20.4708C21.5365 20.4708 20.1452 19.9671 19.0951 18.9596C18.0625 17.9348 17.5462 16.5538 17.5462 14.8168C17.5462 14.2956 17.5987 13.7485 17.7037 13.1753ZM30.6197 13.1753C30.7072 12.6541 30.751 12.1938 30.751 11.7943C30.751 10.3178 30.3047 9.14531 29.4121 8.27679C28.5196 7.3909 27.3382 6.94795 25.8681 6.94795C24.713 6.94795 23.6454 7.19982 22.6654 7.70357C21.7028 8.18994 20.889 8.90213 20.2239 9.84013C19.5764 10.7781 19.1388 11.8898 18.9113 13.1753C18.8238 13.7485 18.78 14.2349 18.78 14.6344C18.78 16.1456 19.2088 17.3268 20.0664 18.1779C20.9415 19.0117 22.1316 19.4286 23.6367 19.4286C24.7393 19.4286 25.7806 19.1767 26.7607 18.673C27.7583 18.1519 28.5896 17.4223 29.2546 16.4843C29.9372 15.529 30.3922 14.4259 30.6197 13.1753Z" stroke="#41200D" stroke-width="1.2" mask="url(#path-1-outside-1_11_1870)"/>
<path d="M37.2839 16.4843C37.2138 16.8317 37.1788 17.1791 37.1788 17.5266C37.1788 18.1519 37.3539 18.5948 37.7039 18.8554C38.0539 19.0986 38.6315 19.2202 39.4365 19.2202H41.0116L40.8279 20.2624H39.0427C37.9927 20.2624 37.2138 20.0626 36.7063 19.6631C36.2163 19.2636 35.9712 18.6035 35.9712 17.6829C35.9712 17.2834 36.0063 16.8838 36.0763 16.4843L37.7564 7.13034H35.6037L35.7875 6.11417H37.9402L38.5702 2.51849H39.7778L39.1477 6.11417H43.3481L43.1643 7.13034H38.964L37.2839 16.4843Z" stroke="#41200D" stroke-width="1.2" mask="url(#path-1-outside-1_11_1870)"/>
<path d="M44.4685 13.1753C44.731 11.6988 45.2561 10.4134 46.0436 9.31902C46.8312 8.22468 47.7938 7.3909 48.9314 6.81767C50.0864 6.22708 51.329 5.93178 52.6591 5.93178C54.4443 5.93178 55.8269 6.37473 56.807 7.26062C57.8046 8.14651 58.3121 9.33639 58.3296 10.8302H57.0957C57.0782 9.63169 56.6495 8.685 55.8094 7.99018C54.9868 7.27799 53.8755 6.9219 52.4754 6.9219C51.4428 6.9219 50.454 7.1564 49.5089 7.6254C48.5638 8.07703 47.75 8.78053 47.0675 9.73591C46.3849 10.6739 45.9211 11.8204 45.6761 13.1753C45.5711 13.7137 45.5186 14.2349 45.5186 14.7386C45.5186 16.2672 45.9561 17.4397 46.8312 18.2561C47.7238 19.0552 48.8614 19.4547 50.244 19.4547C51.6441 19.4547 52.8779 19.1073 53.9455 18.4124C55.0306 17.7176 55.8006 16.7623 56.2557 15.5463H57.5158C56.9557 17.0402 56.0194 18.2387 54.7068 19.142C53.3942 20.0279 51.8453 20.4708 50.0602 20.4708C48.3101 20.4708 46.9099 19.9758 45.8599 18.9857C44.8273 17.9782 44.311 16.6059 44.311 14.8689C44.311 14.3304 44.3635 13.7659 44.4685 13.1753Z" stroke="#41200D" stroke-width="1.2" mask="url(#path-1-outside-1_11_1870)"/>
<path d="M60.7735 13.1753C61.036 11.7161 61.5523 10.4394 62.3224 9.34507C63.1099 8.25073 64.0813 7.40827 65.2363 6.81767C66.3914 6.22708 67.634 5.93178 68.9641 5.93178C70.4518 5.93178 71.6506 6.29656 72.5607 7.02612C73.4882 7.75568 74.0658 8.685 74.2933 9.81407L74.9496 6.11417H76.131L73.5845 20.2624H72.4294L73.0857 16.5364C72.4732 17.6829 71.5718 18.6296 70.3817 19.3765C69.1917 20.1061 67.844 20.4708 66.3389 20.4708C64.6063 20.4708 63.2149 19.9671 62.1649 18.9596C61.1323 17.9348 60.616 16.5538 60.616 14.8168C60.616 14.2956 60.6685 13.7485 60.7735 13.1753ZM73.6895 13.1753C73.777 12.6541 73.8208 12.1938 73.8208 11.7943C73.8208 10.3178 73.3745 9.14531 72.4819 8.27679C71.5893 7.3909 70.408 6.94795 68.9379 6.94795C67.7828 6.94795 66.7152 7.19982 65.7351 7.70357C64.7726 8.18994 63.9587 8.90213 63.2937 9.84013C62.6461 10.7781 62.2086 11.8898 61.9811 13.1753C61.8936 13.7485 61.8498 14.2349 61.8498 14.6344C61.8498 16.1456 62.2786 17.3268 63.1362 18.1779C64.0112 19.0117 65.2013 19.4286 66.7065 19.4286C67.8091 19.4286 68.8504 19.1767 69.8305 18.673C70.828 18.1519 71.6593 17.4223 72.3244 16.4843C73.007 15.529 73.462 14.4259 73.6895 13.1753Z" stroke="#41200D" stroke-width="1.2" mask="url(#path-1-outside-1_11_1870)"/>
<path d="M86.5754 1.78893C85.2103 1.78893 84.2127 2.04949 83.5826 2.5706C82.9701 3.09171 82.5588 3.94286 82.3488 5.12406L82.165 6.11417H85.8666L85.6828 7.1564H81.9813L79.6448 20.2624H78.4635L80.7737 7.1564H78.6472L78.831 6.11417H80.9574L81.1412 5.12406C81.4037 3.6302 81.9725 2.52717 82.8476 1.81499C83.7402 1.1028 85.044 0.746704 86.7591 0.746704L86.5754 1.78893Z" stroke="#41200D" stroke-width="1.2" mask="url(#path-1-outside-1_11_1870)"/>
<path d="M95.1143 5.93178C96.3219 5.93178 97.3457 6.16628 98.1858 6.63528C99.0433 7.08692 99.6821 7.70357 100.102 8.48524C100.54 9.24954 100.758 10.1094 100.758 11.0647C100.758 11.4816 100.723 11.8638 100.653 12.2112C100.548 12.8365 100.443 13.3055 100.338 13.6182H88.0262C87.9562 14.1741 87.9212 14.5736 87.9212 14.8168C87.9212 16.3106 88.3762 17.4571 89.2863 18.2561C90.1964 19.0552 91.3427 19.4547 92.7253 19.4547C94.1079 19.4547 95.333 19.1159 96.4006 18.4385C97.4857 17.7437 98.2558 16.8057 98.7108 15.6245H99.9446C99.3846 17.0662 98.4483 18.2387 97.1357 19.142C95.8406 20.0279 94.3092 20.4708 92.5416 20.4708C90.7914 20.4708 89.3826 19.9671 88.315 18.9596C87.2649 17.9521 86.7399 16.5799 86.7399 14.8428C86.7399 14.3043 86.7924 13.7485 86.8974 13.1753C87.1599 11.6988 87.6849 10.4134 88.4725 9.31902C89.2601 8.22468 90.2226 7.3909 91.3602 6.81767C92.5153 6.22708 93.7667 5.93178 95.1143 5.93178ZM99.3933 12.7063C99.5159 12.2025 99.5771 11.6901 99.5771 11.169C99.5771 9.7967 99.1308 8.74579 98.2383 8.01623C97.3632 7.28668 96.2519 6.9219 94.9043 6.9219C93.9067 6.9219 92.9441 7.13903 92.0165 7.57329C91.0889 8.00755 90.2839 8.65894 89.6013 9.52746C88.9188 10.396 88.4462 11.4556 88.1837 12.7063H99.3933Z" stroke="#41200D" stroke-width="1.2" mask="url(#path-1-outside-1_11_1870)"/>
</svg>
