<svg width="14" height="18" viewBox="0 0 14 18" fill="none" xmlns="http://www.w3.org/2000/svg">
<path d="M12 3.01759C11.228 1.74468 9.11718 1.40492 7.58846 1.25282C5.80527 1.0754 4.19178 1.57543 2.89487 2.58832C1.19798 3.91361 0.489742 6.2776 1.39784 8.11515C2.19444 9.72708 3.97018 11.0212 5.23082 12.378C5.86478 13.0604 6.25971 13.8375 6.76401 14.584C7.06611 15.0311 7.70417 15.6868 7.70417 16.2176" stroke="#41200D" stroke-width="2" stroke-linecap="round"/>
<path d="M8.56818 16.2176C9.23318 15.9668 9.63069 14.4996 9.90657 13.9676C10.3541 13.1046 10.714 12.1932 11.1818 11.3426C11.8641 10.102 12.6678 8.79441 12.779 7.37831C12.8534 6.43198 13 5.46129 13 4.51521C13 4.03388 12.538 3.81088 12.4318 3.36045C12.0271 1.64329 9.39192 1.50289 8 1.21759" stroke="#41200D" stroke-width="2" stroke-linecap="round"/>
<path d="M8.88562 4.59301C8.77147 4.57398 8.66079 4.50489 8.55187 4.4681C8.1795 4.3423 7.78998 4.29592 7.40226 4.24364C7.00047 4.18946 6.65662 4.19356 6.30146 4.40954C5.7894 4.72092 5.47313 5.2135 5.18894 5.72505C4.7257 6.55887 4.53308 7.42075 4.95863 8.33263C5.12146 8.68157 5.60956 8.98731 5.93452 9.17386C6.30531 9.38672 6.67053 9.47638 7.09583 9.47638C7.76594 9.47638 8.4006 9.34958 8.98712 9.01966C9.1796 8.91139 9.29001 8.69252 9.43993 8.53562C9.5925 8.37596 9.70783 8.16656 9.79711 7.9657C9.94965 7.62247 10.0376 7.27692 10.0801 6.90393C10.1134 6.61191 10.2419 6.10225 10.1094 5.82068C9.97745 5.5403 9.77779 5.17605 9.53752 4.97946C9.01666 4.55331 8.33911 4.26589 7.69113 4.13629" stroke="#41200D" stroke-width="2" stroke-linecap="round"/>
</svg>
